PathFileType	4	(X/Y/Z)	Patient4_TMGait_0pt5_02_left_02.trc.trc
DataRate	CameraRate	NumFrames	NumMarkers	Units	OrigDataRate	OrigDataStartFrame	OrigNumFrames
77.348066298343	77.348066298343	4	33	mm	77.348066298343	124	       141
Frame#	Time	Sacral			L.Shoulder			Chest			R.Shoulder			Neck			R.ASIS			L.ASIS			R.Thigh.Superior			R.Thigh.Lateral			R.Thigh.Inferior			R.Patella			L.Thigh.Superior			L.Thigh.Lateral			L.Thigh.Inferior			L.Patella			L.Shank.Superior			L.Shank.Lateral			L.Shank.Inferior			R.Shank.Superior			R.Shank.Lateral			R.Shank.Inferior			R.Heel			R.Midfoot.Superior			R.Midfoot.Lateral			R.Toe			L.Heel			L.Midfoot.Lateral			L.Midfoot.Superior			L.Toe			L.Elbow			L.Wrist			R.Elbow			R.Wrist			
		X1	Y1	Z1	X2	Y2	Z2	X3	Y3	Z3	X4	Y4	Z4	X5	Y5	Z5	X6	Y6	Z6	X7	Y7	Z7	X8	Y8	Z8	X9	Y9	Z9	X10	Y10	Z10	X11	Y11	Z11	X12	Y12	Z12	X13	Y13	Z13	X14	Y14	Z14	X15	Y15	Z15	X16	Y16	Z16	X17	Y17	Z17	X18	Y18	Z18	X19	Y19	Z19	X20	Y20	Z20	X21	Y21	Z21	X22	Y22	Z22	X23	Y23	Z23	X24	Y24	Z24	X25	Y25	Z25	X26	Y26	Z26	X27	Y27	Z27	X28	Y28	Z28	X29	Y29	Z29	X30	Y30	Z30	X31	Y31	Z31	X32	Y32	Z32	X33	Y33	Z33	

124	3.480214285714	534.904686203750	1008.050557455711	521.688929492702	719.038608482348	1428.503591806277	336.771217230318	830.105202121330	1351.175195841681	488.300890538465	763.538259498181	1427.263169890172	669.364648956838	732.014388285687	1485.495250837000	488.966673516742	762.122076521666	928.774334508804	628.197993063036	738.748852723639	950.454154664540	354.762189797340	760.063783881531	718.033450398515	599.801371943046	655.621615177468	625.996195648251	660.096276060812	716.531391818146	559.206601820949	580.621016480734	697.358707338056	472.717931300704	582.972400005056	806.243923807751	762.279791220984	387.546248790934	747.968959762672	636.316863680913	312.934532287407	846.202729233743	573.944529814024	377.573839914005	869.253716718054	508.564137606961	376.918567031263	853.746000585189	436.848995688030	366.602863863672	788.288091809225	306.350549954356	317.535603836490	873.583657870675	208.645041648918	376.762642820529	655.784983117357	390.847096587303	589.296533499463	569.609723035628	299.458489625825	650.241723279402	594.662188306471	199.521699347734	586.737995222525	440.487603290583	44.834472844848	553.715751827285	610.242979554004	95.723622343505	595.550423519718	520.293487534147	36.557565464833	631.592150356198	728.559396210003	40.720390854070	630.748016418154	782.527394773641	37.355185249803	414.750248264026	859.089769337640	38.241970269829	336.607741738043	934.984067363192	107.877005880595	361.127505020005	1066.656014168636	68.637845284045	338.682545746575	576.524123697837	1103.521927031672	233.486078746808	559.596106275669	842.974997589768	226.751658242423	862.339651536678	1105.392170557428	783.725680201541	1075.825868879347	1198.209114371399	698.839641016702	
125	3.493142857143	536.971662184340	1006.971527234884	519.219716720401	719.844822332132	1427.663141225637	334.023305036443	831.029272258817	1350.977991492426	485.792993048820	763.746189257471	1426.859411944174	666.682576229229	732.400277046241	1484.809189390260	486.164577995038	764.162643295606	928.177414762389	626.292011846908	741.282579874236	949.294122012835	352.999014020225	760.724397011103	716.990966476772	598.676035393820	654.933143225878	625.751630447373	658.783784277632	715.396397671146	558.271832798912	579.716257712850	695.320651359171	471.590874263500	581.962429203969	808.239162225680	760.565223782024	386.006473245837	748.606991693054	634.752570828953	312.313648261633	847.096519874056	572.544039941168	376.715595732306	868.840846526420	506.357992394265	376.534266414841	853.108773512620	434.316358046896	366.263565735918	786.106839510400	304.364879120114	317.847172589986	870.177258451704	205.963373945313	377.440416522776	652.788868093661	390.288140795316	588.437823372973	565.590004512306	299.950009419302	649.691067584061	589.607074674337	199.588433222859	586.443534611758	434.087661902521	45.769014591581	553.850589625328	604.125621583889	95.892140402674	595.598589021514	513.934856200455	36.983654227655	631.619980236124	722.219852283631	40.357687886454	630.820311415271	776.180836763006	36.857168488208	415.678788321686	852.681111328834	36.840616183612	337.349973101286	930.118996668271	104.497686278301	362.561301029247	1061.158272400406	62.452126508248	339.770905068045	576.339507731929	1103.239582211251	231.461072422831	557.221345330650	842.691899633722	226.910837774015	865.717832715797	1105.643417194419	780.181854860822	1076.894012394544	1202.525759853819	694.300975077219	
126	3.506071428571	538.954299632537	1006.145895174028	516.820569335846	720.673415420192	1426.973752315111	331.197010083357	832.031230833319	1350.907216207736	483.159833697543	764.207849033235	1426.673937934012	663.898028647859	732.947276790454	1484.320056950821	483.238221384857	766.156658031387	927.716901221957	624.200598901243	743.607527944397	948.457699935214	351.066750883892	761.621774809611	716.144778056287	597.317785565629	654.798321231588	625.551382495774	657.328424393064	714.892976237944	557.462282035924	578.578040235136	694.051500731543	470.431407113482	580.860483588026	810.243768167897	759.448430126237	384.425497065996	749.698976439088	633.800322523157	311.490559376834	848.400085094227	571.737603566679	375.720686163633	868.747551725353	504.640162448609	376.045731992797	852.775343823108	432.265113413080	365.813642318291	784.290804528094	303.001104761258	317.626647673782	866.732887013777	203.758153609699	377.849779948688	650.408150290955	389.740484945144	587.511309698026	562.050354233520	300.608550407475	649.103032166099	584.866347957574	199.792934226792	586.160224023438	427.759077225009	47.126892637908	554.041915238870	598.186706260962	96.143890963969	595.688896734961	507.650424963443	37.631087751070	631.673188129114	715.946717571881	39.927944201037	630.897292021604	769.713681003785	36.589176801779	416.196941064733	846.211325342604	35.830652302766	337.760810039575	924.943922080636	101.766019297224	363.666411644030	1055.437886885339	57.349067341508	340.682646799992	576.950595694234	1102.684416290657	229.339267222161	555.790209891236	842.164741778371	226.784783383820	868.365184914328	1105.844117847217	776.875021308997	1077.823449458779	1205.626470916830	690.081154318558	
127	3.519000000000	540.815111199205	1005.633659071344	514.497781847882	721.521030396112	1426.491297060571	328.330799077662	833.105709762591	1350.976867288677	480.418206178421	764.973158809642	1426.744045315367	661.034412020791	733.677017301124	1484.071097134983	480.233036466882	768.045028631004	927.449367856939	621.932417443498	745.674897138764	947.990198550477	348.941339895427	762.723634454874	715.550487852332	595.703828455513	655.248133300963	625.416395604037	655.737768048613	715.084822598412	556.815104858743	577.219344945780	693.646737066591	469.252244910355	579.723666919818	812.268784096579	759.019542371367	382.810220910551	751.251981169769	633.482092272115	310.476537285875	850.066015976739	571.506408912830	374.586727935893	868.977099069717	503.425783578309	375.440739313726	852.714681884558	430.716777917931	365.277757983809	782.814610400785	302.268189061664	316.918643617560	863.252290260758	202.060029214926	378.014833224083	648.718545524124	389.221509965903	586.551843588553	559.046147562565	301.471044160056	648.486675656546	580.494574396830	200.172696981009	585.907007295198	421.535835516227	48.998191098491	554.286465826903	592.467809887554	96.490911848327	595.827432804453	501.457672570769	38.553075464288	631.745501143744	709.740303763845	39.437717747827	630.976834609225	763.233213793653	36.517184358280	416.373710897118	839.764458810981	35.186294404005	337.891467797552	919.509013441571	99.726479888789	364.428304916619	1049.561450983593	53.456431007795	341.362869829453	578.302072436870	1101.933065238740	227.133790008876	555.356905636321	841.449540806244	226.334489172791	870.239728022656	1105.988087488354	773.811226367374	1078.653889057290	1207.467112445719	686.206051136257	
